<svg width="1024" height="1024" viewBox="0 0 1024 1024" fill="none" xmlns="http://www.w3.org/2000/svg">
<g clip-path="url(#clip0_559_22)">
<circle cx="512" cy="512" r="512" fill="white"/>
<mask id="mask0_559_22" style="mask-type:alpha" maskUnits="userSpaceOnUse" x="0" y="0" width="1024" height="1024">
<circle cx="512" cy="512" r="512" fill="#D9D9D9"/>
</mask>
<g mask="url(#mask0_559_22)">
<rect x="-169.837" y="174" width="1363.84" height="88.5648" fill="#FFF500"/>
<rect x="-169.837" y="326.331" width="1363.84" height="88.5648" fill="#FFF500"/>
<rect x="-169.837" y="762.07" width="1363.84" height="88.5648" fill="#FFF500"/>
<rect x="-169.837" y="616.823" width="1363.84" height="88.5648" fill="#FFF500"/>
<rect x="-169.837" y="466.264" width="1363.84" height="88.5648" fill="#FFF500"/>
<path fill-rule="evenodd" clip-rule="evenodd" d="M486.444 254.324C487.445 257.438 488.954 261.368 489.797 263.06C490.64 264.751 491.331 267.355 491.331 268.845C491.331 273.16 495.603 285.669 497.075 285.669C497.814 285.669 498.416 288.023 498.416 290.899C498.416 293.776 499.312 298.36 500.409 301.084C504.116 310.306 505.092 313.106 507.389 321.095C508.651 325.479 510.192 329.862 510.815 330.837C511.439 331.811 513.028 336.195 514.347 340.579C515.665 344.963 517.404 349.306 518.209 350.232C519.013 351.157 519.672 353.787 519.672 356.074C519.672 358.363 521.266 363.533 523.214 367.566C525.163 371.6 526.769 376.145 526.783 377.666C526.815 381.032 530.944 393.183 532.629 394.865C533.296 395.533 533.842 398.291 533.842 400.994C533.842 403.697 534.549 406.345 535.413 406.878C536.276 407.412 537.514 410.846 538.162 414.511C539.709 423.24 553.03 465.967 555.981 471.655C557.244 474.09 559.294 479.67 560.537 484.054C561.781 488.438 563.458 492.783 564.262 493.707C565.066 494.634 565.725 496.835 565.725 498.603C565.725 500.369 566.444 503.2 567.325 504.891C568.203 506.583 569.875 511.553 571.039 515.937C572.203 520.321 573.875 525.291 574.754 526.983C575.634 528.674 576.353 532.015 576.353 534.406C576.353 536.798 577.15 539.247 578.124 539.85C579.099 540.452 579.896 542.843 579.896 545.163C579.896 547.484 580.693 549.875 581.667 550.477C582.641 551.08 583.472 553.717 583.513 556.339C583.555 558.96 585.594 566.685 588.044 573.504C590.493 580.324 593.276 589.092 594.229 592.988C595.182 596.885 597.129 602.585 598.556 605.655C599.984 608.725 601.151 612.361 601.151 613.736C601.151 615.11 602.745 619.535 604.694 623.568C606.642 627.601 608.236 632.088 608.236 633.539C608.236 634.989 609.033 636.669 610.008 637.271C610.982 637.873 611.779 640.663 611.779 643.47C611.779 646.278 612.576 649.068 613.55 649.67C614.524 650.272 615.322 652.663 615.322 654.984C615.322 657.304 616.119 659.695 617.093 660.298C618.067 660.9 618.864 662.951 618.864 664.855C618.864 666.759 619.583 669.701 620.464 671.393C621.342 673.085 623.074 678.055 624.313 682.439C625.553 686.823 627.225 691.166 628.029 692.092C628.833 693.017 629.492 695.959 629.492 698.63C629.492 701.301 630.289 703.978 631.263 704.58C632.237 705.182 633.035 707.348 633.035 709.394C633.035 714.203 644.364 750.936 650.26 765.247L654.821 776.317H704.152H753.483V772.243C753.483 770.003 754.264 767.388 755.217 766.435C757.597 764.055 771.196 721.818 771.196 716.805C771.196 714.581 771.993 712.267 772.967 711.665C773.941 711.063 774.738 708.672 774.738 706.351C774.738 704.031 775.535 701.64 776.509 701.037C777.484 700.435 778.281 698.044 778.281 695.724C778.281 693.403 779.078 691.012 780.052 690.41C781.026 689.807 781.823 687.018 781.823 684.21C781.823 681.403 782.62 678.613 783.595 678.011C784.569 677.408 785.366 675.13 785.366 672.946C785.366 670.762 786.046 668.219 786.877 667.294C787.706 666.37 789.374 661.626 790.582 656.755C792.742 648.054 794.871 642.062 797.972 635.967C798.833 634.276 799.536 631.046 799.536 628.793C799.536 626.539 800.287 623.936 801.205 623.012C803.438 620.761 817.249 579.084 817.249 574.595C817.249 572.649 817.991 570.597 818.9 570.036C819.809 569.474 821.534 564.446 822.735 558.861C823.938 553.276 825.482 547.909 826.169 546.935C826.859 545.961 828.47 540.779 829.753 535.421C831.037 530.063 832.589 524.882 833.205 523.908C833.82 522.934 835.343 518.55 836.586 514.166C837.832 509.782 839.569 504.812 840.448 503.12C841.328 501.428 842.047 498.826 842.047 497.338C842.047 495.851 842.747 493.249 843.601 491.557C844.456 489.865 846.107 485.294 847.271 481.397C848.435 477.5 850.461 471.92 851.774 468.998C854.074 463.875 864.268 431.404 868.734 414.973C871.545 404.625 877.56 384.959 879.298 380.433C881.296 375.231 883.844 367.318 886.432 358.292C887.688 353.908 889.376 349.563 890.18 348.638C890.984 347.712 891.643 345.51 891.643 343.742C891.643 341.976 892.359 339.146 893.232 337.454C896.019 332.064 900.059 320.669 905.001 304.267C907.644 295.499 911.298 284.112 913.124 278.959C914.948 273.808 916.442 267.678 916.442 265.338C916.442 262.996 917.239 260.587 918.213 259.985C919.187 259.383 919.984 256.533 919.984 253.653V248.413L872.602 248.886L825.22 249.357L824.666 255.114C824.359 258.279 823.537 260.871 822.838 260.871C821.856 260.871 817.977 271.332 816.266 278.584C816.151 279.071 815.565 280.665 814.964 282.126C814.362 283.587 812.557 289.566 810.952 295.411C809.347 301.256 806.533 310.717 804.698 316.436C802.863 322.154 801.759 327.478 802.248 328.27C802.737 329.06 802.326 330.206 801.336 330.819C800.346 331.43 799.536 334.229 799.536 337.036C799.536 339.844 798.739 342.634 797.765 343.236C796.791 343.838 795.994 346.288 795.994 348.679C795.994 351.07 795.274 354.411 794.394 356.102C793.516 357.794 791.932 362.366 790.878 366.263C789.822 370.159 787.353 378.462 785.391 384.711C783.428 390.96 781.823 397.489 781.823 399.219C781.823 400.95 781.026 402.858 780.052 403.46C779.078 404.062 778.281 406.113 778.281 408.017C778.281 409.921 777.521 412.864 776.593 414.555C774.706 417.993 769.426 433.853 765.248 448.628C758.545 472.333 757.025 478.683 757.025 482.998C757.025 485.527 756.318 487.596 755.454 487.596C753.888 487.596 752.379 493.172 750.539 505.752C750.006 509.406 748.854 512.394 747.983 512.394C747.111 512.394 746.397 513.788 746.396 515.494C746.396 517.2 744.802 522.787 742.853 527.913C740.906 533.037 739.312 538.828 739.312 540.778C739.312 542.73 738.567 545.711 737.656 547.402C735.871 550.715 729.832 568.986 723.466 590.331C721.288 597.638 718.689 605.793 717.694 608.455C716.696 611.118 716.346 614.504 716.914 615.983C717.481 617.462 717.173 618.672 716.23 618.672C715.286 618.672 714.514 620.617 714.514 622.996C714.514 625.375 713.717 627.812 712.743 628.414C711.769 629.017 710.971 631.48 710.971 633.888C710.971 639.343 705.959 641.618 702.965 637.522C701.766 635.882 700.248 631.169 699.591 627.049C697.896 616.426 680.753 562.134 673.735 545.163C672.366 541.855 671.472 538.225 669.038 526.122C668.499 523.444 667.352 521.251 666.489 521.251C665.625 521.251 664.918 519.912 664.918 518.277C664.918 514.947 661.763 504.28 659.386 499.577C658.532 497.886 657.833 494.497 657.833 492.049C657.833 489.6 657.036 487.596 656.061 487.596C655.087 487.596 654.29 485.46 654.29 482.851C654.29 480.242 653.518 475.658 652.572 472.666C651.628 469.674 648.776 460.053 646.236 451.285C640.545 431.634 636.457 419.931 634.514 417.719C633.701 416.792 633.035 413.852 633.035 411.181C633.035 408.51 632.237 405.833 631.263 405.231C630.289 404.629 629.492 402.578 629.492 400.674C629.492 398.769 628.787 395.827 627.924 394.136C625.135 388.661 618.864 367.678 618.864 363.816C618.864 361.751 618.067 360.063 617.093 360.063C616.119 360.063 615.322 358.258 615.322 356.053C615.322 353.848 613.727 347.68 611.779 342.35C609.831 337.02 608.236 331.152 608.236 329.312C608.236 325.459 597.364 289.861 591.391 274.155C589.168 268.31 586.336 260.121 585.096 255.961L582.845 248.394L533.736 248.528L484.627 248.663L486.444 254.324Z" fill="#006EC7"/>
<path fill-rule="evenodd" clip-rule="evenodd" d="M104.253 264.953C103.557 278.041 103.7 747.709 104.409 770.975L104.588 776.875L211.308 775.825C336.137 774.594 377.615 773.448 379.935 771.161C380.862 770.249 385.795 769.503 390.902 769.503C396.008 769.503 400.677 768.706 401.28 767.732C401.882 766.758 404.532 765.961 407.167 765.961C412.618 765.961 432.38 756.821 435.776 752.729C437.014 751.238 438.785 750.019 439.715 750.019C440.645 750.019 443.633 747.826 446.354 745.148C449.074 742.47 453.198 738.598 455.517 736.543C460.581 732.06 466.274 725.221 464.943 725.221C464.419 725.221 466.817 722.309 470.275 718.75C473.731 715.19 476.56 711.128 476.56 709.724C476.56 708.319 477.984 705.053 479.723 702.467C481.463 699.881 483.948 695.375 485.244 692.452C486.541 689.529 488.305 685.755 489.166 684.063C490.027 682.372 490.73 679.142 490.73 676.889C490.73 674.634 491.446 672.032 492.321 671.108C494.25 669.064 495.636 659.672 497.797 633.999C499.886 609.178 497.982 591.894 491.07 572.948C487.345 562.735 471.035 538.592 461.697 529.464C453.577 521.527 433.668 507.352 430.642 507.352C429.567 507.352 427.302 506.622 425.61 505.729C423.919 504.836 419.581 502.822 415.967 501.253C412.356 499.684 408.997 497.746 408.503 496.947C408.009 496.146 412.956 491.826 419.497 487.343C430.972 479.482 449.99 462.805 449.99 460.605C449.99 460.017 452.644 455.747 455.887 451.117C462.62 441.505 469.474 425.574 469.474 419.541C469.474 417.292 470.272 414.961 471.246 414.359C472.22 413.756 473.017 409.918 473.017 405.828C473.017 401.74 473.715 395.958 474.569 392.983C476.71 385.517 470.778 336.294 467.948 338.041C467.326 338.425 466.701 336.801 466.559 334.432C466.187 328.24 457.44 310.759 451.6 304.538C448.857 301.616 446.678 298.525 446.758 297.671C447.036 294.725 426.861 275.833 419.853 272.476C415.992 270.625 412.825 268.514 412.812 267.784C412.802 267.054 411.199 266.455 409.25 266.455C407.302 266.455 405.708 265.75 405.708 264.891C405.708 264.031 403.915 262.89 401.722 262.357C399.531 261.824 394.549 260.506 390.652 259.429C363.436 251.899 342.157 250.686 216.011 249.467L105.135 248.394L104.253 264.953ZM350.257 337.755C360.728 341.554 377.367 354.298 377.367 358.519C377.367 359.518 378.164 360.335 379.138 360.335C380.113 360.335 380.91 361.881 380.91 363.773C380.91 365.665 381.618 367.649 382.486 368.185C386.34 370.568 389.036 401.146 386.234 410.705C383.009 421.71 375.635 435.789 370.163 441.386C363.687 448.009 348.957 455.053 335.742 457.847C324.147 460.298 200.769 461.161 196.977 458.815C195.51 457.91 195.25 452.508 196.07 439.992C196.851 428.084 196.585 421.675 195.243 420.058C192.933 417.275 193.144 339.575 195.471 335.98C196.578 334.269 213.083 333.767 268.094 333.769C337.458 333.774 339.566 333.875 350.257 337.755ZM331.313 546.071C358.671 548.739 365.292 551.072 380.398 563.375C385.627 567.635 390.802 571.119 391.902 571.119C393.001 571.119 393.443 571.574 392.887 572.132C392.329 572.689 394.113 578.079 396.848 584.112C399.583 590.143 402.27 599.052 402.819 603.911C403.368 608.77 404.323 617.231 404.939 622.715C405.671 629.211 405.384 633.106 404.114 633.89C403.042 634.553 402.165 637.791 402.165 641.085C402.165 644.38 401.368 647.568 400.394 648.171C399.42 648.773 398.623 651.258 398.623 653.693C398.623 656.194 397.852 657.645 396.851 657.027C395.877 656.425 395.08 656.901 395.08 658.084C395.08 659.268 393.121 662.803 390.728 665.94C388.335 669.079 386.941 672.271 387.628 673.034C388.317 673.798 388.055 673.955 387.049 673.385C386.041 672.813 382.525 674.694 379.238 677.565C375.95 680.436 371.194 683.278 368.67 683.878C366.148 684.478 363.285 685.571 362.311 686.308C358.428 689.238 339.763 690.17 269.745 690.926L196.663 691.716L194.925 687.143C193.131 682.422 192.88 624.72 194.64 621.642C196.443 618.487 196.19 566.861 194.323 557.168C194.233 556.7 194.143 556.246 194.057 555.806C193.302 551.98 192.764 549.248 193.768 547.319C196.277 542.504 208.412 542.703 250.85 543.399H250.851L250.98 543.401C252.898 543.432 254.877 543.465 256.919 543.498C288.581 544.011 322.058 545.168 331.313 546.071Z" fill="#006EC7"/>
</g>
</g>
<defs>
<clipPath id="clip0_559_22">
<rect width="1024" height="1024" fill="white"/>
</clipPath>
</defs>
</svg>
